<svg width="20" height="20" viewBox="0 0 20 20" fill="none" xmlns="http://www.w3.org/2000/svg">
<path d="M14.9016 16.0809C13.436 17.0105 11.7356 17.5028 9.99996 17.5001C5.50663 17.5001 1.7683 14.2667 0.984131 10.0001C1.34249 8.05899 2.31882 6.2858 3.76746 4.94506L1.15996 2.34006L2.33913 1.16089L18.8383 17.6609L17.6591 18.8392L14.9008 16.0809H14.9016ZM4.9458 6.12506C3.8133 7.15471 3.02439 8.50737 2.6858 10.0001C2.94604 11.1388 3.46852 12.201 4.21163 13.1022C4.95475 14.0034 5.89799 14.7187 6.96626 15.1911C8.03453 15.6636 9.19834 15.8801 10.365 15.8235C11.5317 15.7669 12.6691 15.4387 13.6866 14.8651L11.9966 13.1751C11.2772 13.6282 10.4251 13.8235 9.58016 13.7288C8.73519 13.634 7.9475 13.255 7.34627 12.6537C6.74505 12.0525 6.36599 11.2648 6.27127 10.4199C6.17654 9.57489 6.37178 8.72281 6.82496 8.00339L4.9458 6.12506ZM10.7616 11.9401L8.05996 9.23839C7.91168 9.61583 7.87679 10.0284 7.95955 10.4253C8.04232 10.8223 8.23914 11.1865 8.5259 11.4733C8.81265 11.76 9.17685 11.9569 9.57384 12.0396C9.97083 12.1224 10.3834 12.0875 10.7608 11.9392L10.7616 11.9401ZM17.3391 13.8267L16.1466 12.6351C16.7037 11.8411 17.1003 10.946 17.3141 10.0001C17.0877 9.00816 16.6618 8.07268 16.0626 7.25047C15.4633 6.42826 14.7031 5.73649 13.8282 5.21723C12.9533 4.69796 11.9819 4.36203 10.9731 4.22986C9.96428 4.09769 8.93913 4.17204 7.95996 4.44839L6.64496 3.13339C7.68413 2.72506 8.81663 2.50006 9.99996 2.50006C14.4933 2.50006 18.2316 5.73339 19.0158 10.0001C18.7605 11.3881 18.1865 12.698 17.3391 13.8267V13.8267ZM9.76913 6.25672C10.2996 6.22394 10.8309 6.30428 11.3279 6.4924C11.8249 6.68053 12.2763 6.97215 12.6521 7.34793C13.0279 7.72371 13.3195 8.17508 13.5076 8.6721C13.6957 9.16913 13.7761 9.70046 13.7433 10.2309L9.7683 6.25672H9.76913Z" fill="#A9A9A9"/>
</svg>
