<svg width="21" height="20" viewBox="0 0 21 20" fill="none" xmlns="http://www.w3.org/2000/svg">
<path d="M3.05317 6.25829C3.74651 4.87766 4.81015 3.71705 6.1252 2.90618C7.44025 2.09531 8.95489 1.66614 10.4998 1.66663C12.7457 1.66663 14.6323 2.49163 16.0748 3.83746L13.6857 6.22746C12.8215 5.40163 11.7232 4.98079 10.4998 4.98079C8.329 4.98079 6.49151 6.44746 5.83734 8.41663C5.67067 8.91663 5.57567 9.44996 5.57567 9.99996C5.57567 10.55 5.67067 11.0833 5.83734 11.5833C6.49234 13.5533 8.329 15.0191 10.4998 15.0191C11.6207 15.0191 12.5748 14.7233 13.3215 14.2233C13.7544 13.9383 14.1249 13.5685 14.4108 13.1362C14.6967 12.7039 14.892 12.2182 14.9848 11.7083H10.4998V8.48496H18.3482C18.4465 9.02996 18.4998 9.59829 18.4998 10.1891C18.4998 12.7275 17.5915 14.8641 16.0148 16.3141C14.6365 17.5875 12.7498 18.3333 10.4998 18.3333C9.40537 18.3337 8.32154 18.1185 7.31029 17.6998C6.29905 17.2812 5.38021 16.6674 4.6063 15.8935C3.8324 15.1196 3.21858 14.2008 2.79995 13.1895C2.38132 12.1783 2.16607 11.0944 2.1665 9.99996C2.1665 8.65496 2.48817 7.38329 3.05317 6.25829Z" fill="#222222"/>
</svg>
