<svg width="20" height="20" viewBox="0 0 20 20" fill="none" xmlns="http://www.w3.org/2000/svg">
<path d="M1.869 5.71166L9.57484 1.09166C9.70435 1.01395 9.85255 0.9729 10.0036 0.9729C10.1546 0.9729 10.3028 1.01395 10.4323 1.09166L18.1307 5.71249C18.1924 5.7495 18.2436 5.80189 18.2791 5.86455C18.3145 5.9272 18.3332 5.99798 18.3332 6.06999V16.6667C18.3332 16.8877 18.2454 17.0996 18.0891 17.2559C17.9328 17.4122 17.7209 17.5 17.4998 17.5H2.49984C2.27882 17.5 2.06686 17.4122 1.91058 17.2559C1.7543 17.0996 1.6665 16.8877 1.6665 16.6667V6.06916C1.66649 5.99715 1.68514 5.92637 1.72063 5.86371C1.75611 5.80106 1.80724 5.74867 1.869 5.71166ZM3.33317 6.77749V15.8333H16.6665V6.77666L10.0032 2.77666L3.33317 6.77666V6.77749ZM10.0498 11.415L14.4632 7.69583L15.5365 8.97083L10.0615 13.585L4.46984 8.97666L5.52984 7.68999L10.0498 11.415Z" fill="#A9A9A9"/>
</svg>
