<svg width="20" height="20" viewBox="0 0 20 20" fill="none" xmlns="http://www.w3.org/2000/svg">
<path d="M3.3335 18.3334C3.3335 16.5653 4.03588 14.8696 5.28612 13.6193C6.53636 12.3691 8.23205 11.6667 10.0002 11.6667C11.7683 11.6667 13.464 12.3691 14.7142 13.6193C15.9645 14.8696 16.6668 16.5653 16.6668 18.3334H15.0002C15.0002 17.0073 14.4734 15.7355 13.5357 14.7978C12.598 13.8602 11.3262 13.3334 10.0002 13.3334C8.67408 13.3334 7.40231 13.8602 6.46463 14.7978C5.52695 15.7355 5.00016 17.0073 5.00016 18.3334H3.3335ZM10.0002 10.8334C7.23766 10.8334 5.00016 8.59587 5.00016 5.83337C5.00016 3.07087 7.23766 0.833374 10.0002 0.833374C12.7627 0.833374 15.0002 3.07087 15.0002 5.83337C15.0002 8.59587 12.7627 10.8334 10.0002 10.8334ZM10.0002 9.16671C11.8418 9.16671 13.3335 7.67504 13.3335 5.83337C13.3335 3.99171 11.8418 2.50004 10.0002 2.50004C8.1585 2.50004 6.66683 3.99171 6.66683 5.83337C6.66683 7.67504 8.1585 9.16671 10.0002 9.16671Z" fill="#A9A9A9"/>
</svg>
