<svg width="537" height="124" viewBox="0 0 537 124" fill="none" xmlns="http://www.w3.org/2000/svg">
<path d="M69.504 45.6157C69.888 44.2717 70.464 43.1837 71.232 42.3517C72 41.4557 72.832 41.0077 73.728 41.0077C75.904 41.0077 77.472 41.4237 78.432 42.2557C79.392 43.0877 79.872 44.5277 79.872 46.5757C79.872 47.1517 79.424 48.7837 78.528 51.4717C76.544 57.5517 74.368 65.0717 72 74.0317C71.424 76.0797 70.944 77.8717 70.56 79.4077C70.24 80.9437 69.952 82.2237 69.696 83.2477C68.16 89.8397 66.816 94.7997 65.664 98.1277C65.28 99.0877 64.608 99.8557 63.648 100.432C62.688 100.944 61.664 101.2 60.576 101.2C59.488 101.2 58.4 100.976 57.312 100.528C56.288 100.016 55.552 99.4397 55.104 98.7997C53.12 94.8957 50.656 89.5837 47.712 82.8637C44.832 76.0797 42.592 70.1597 40.992 65.1037C37.024 75.1517 33.472 84.8477 30.336 94.1917C30.144 94.7677 29.92 95.4077 29.664 96.1117C29.472 96.7517 29.248 97.4237 28.992 98.1277C28.544 99.0877 27.904 99.8557 27.072 100.432C26.24 100.944 25.312 101.2 24.288 101.2C23.136 101.2 22.016 100.976 20.928 100.528C19.84 100.016 19.104 99.4397 18.72 98.7997C17.888 97.3917 16.992 95.2157 16.032 92.2717C15.136 89.3277 13.92 85.1997 12.384 79.8877L9.984 71.7277C8.32 66.4157 6.88 60.9757 5.664 55.4077C4.448 49.8397 3.84 46.5117 3.84 45.4237C3.84 44.0797 4.512 43.0237 5.856 42.2557C7.2 41.4237 8.544 41.0077 9.888 41.0077C10.656 41.0077 11.456 41.2637 12.288 41.7757C13.12 42.2237 13.664 43.0237 13.92 44.1757C16.16 56.1437 19.456 70.0317 23.808 85.8397C25.472 81.8717 27.296 77.0397 29.28 71.3437C31.328 65.6477 33.28 60.1117 35.136 54.7357L36.096 51.8557C36.352 50.8957 36.992 50.1597 38.016 49.6477C39.104 49.0717 40.192 48.7837 41.28 48.7837C42.688 48.7837 43.84 49.1357 44.736 49.8397C45.632 50.5437 46.208 51.3117 46.464 52.1437C46.528 52.3997 47.808 56.2077 50.304 63.5677C52.8 70.9277 55.776 78.3517 59.232 85.8397C60.512 82.0637 62.048 76.0157 63.84 67.6957L65.28 61.3597C67.008 54.5757 68.416 49.3277 69.504 45.6157ZM83.1638 80.7517C83.1638 78.3197 83.6118 75.8877 84.5078 73.4557C85.4038 70.9597 86.5878 68.6877 88.0598 66.6397C89.5318 64.5917 91.8678 62.9277 95.0678 61.6477C98.2678 60.3037 101.116 59.6317 103.612 59.6317C106.172 59.6317 108.764 59.9837 111.388 60.6877C114.076 61.3917 115.932 62.4797 116.956 63.9517C119.324 67.2797 120.508 70.5437 120.508 73.7437C120.508 75.4717 120.124 76.9437 119.356 78.1597C118.652 79.3757 117.628 80.6877 116.284 82.0957C115.196 83.2477 113.468 84.0157 111.1 84.3997C108.796 84.7837 106.492 84.9757 104.188 84.9757C102.716 84.9757 100.924 84.8477 98.8118 84.5917C96.6998 84.2717 94.6518 83.8877 92.6678 83.4397C92.7958 84.7197 93.1158 85.9677 93.6278 87.1837C94.1398 88.3997 94.7478 89.3277 95.4518 89.9677C96.7318 91.1837 98.0438 91.9517 99.3878 92.2717C100.796 92.5917 102.588 92.7517 104.764 92.7517C107.068 92.7517 109.212 92.3677 111.196 91.5997C112.796 91.0237 114.108 90.7357 115.132 90.7357C116.348 90.7357 117.276 91.1197 117.916 91.8877C118.556 92.5917 118.876 93.5197 118.876 94.6717C118.876 96.2717 117.948 97.5837 116.092 98.6077C114.236 99.6317 112.092 100.4 109.66 100.912C107.292 101.36 105.372 101.584 103.9 101.584C100.892 101.584 97.9798 101.04 95.1638 99.9517C92.3478 98.8637 90.0118 97.3277 88.1558 95.3437C86.6198 93.5517 85.4038 91.4077 84.5078 88.9117C83.6118 86.3517 83.1638 83.6317 83.1638 80.7517ZM104.092 67.7917C102.684 67.7917 101.276 68.0797 99.8678 68.6557C98.4598 69.1677 97.3078 69.9037 96.4118 70.8637C95.2598 72.0797 94.4598 73.0717 94.0118 73.8397C93.6278 74.5437 93.3718 75.5357 93.2438 76.8157C94.8438 77.3277 98.1718 77.5837 103.228 77.5837C105.98 77.5837 108.092 77.1677 109.564 76.3357C111.1 75.5037 111.868 74.4157 111.868 73.0717C111.868 71.7277 111.036 70.5117 109.372 69.4237C107.708 68.3357 105.948 67.7917 104.092 67.7917ZM166.162 101.488C163.986 101.488 162.322 101.168 161.17 100.528C160.018 99.8237 158.77 98.5437 157.426 96.6877C155.762 98.1597 153.266 99.3437 149.938 100.24C146.674 101.136 143.858 101.584 141.49 101.584C137.586 101.584 134.418 100.528 131.986 98.4157C129.618 96.2397 128.434 93.0717 128.434 88.9117C128.434 87.1197 128.914 85.4877 129.874 84.0157C130.898 82.4797 132.21 81.1357 133.81 79.9837C135.602 78.7677 137.714 77.8077 140.146 77.1037C142.642 76.3997 144.914 76.0477 146.962 76.0477C150.418 76.0477 153.49 76.3677 156.178 77.0077V76.9117C156.178 73.4557 155.314 71.0877 153.586 69.8077C151.922 68.4637 149.234 67.7917 145.522 67.7917C143.154 67.7917 141.106 68.8477 139.378 70.9597C138.738 71.7917 137.394 72.2077 135.346 72.2077C134.322 72.2077 133.554 71.7917 133.042 70.9597C132.594 70.0637 132.37 69.1677 132.37 68.2717C132.37 66.4157 133.138 64.8157 134.674 63.4717C136.274 62.1277 138.194 61.1357 140.434 60.4957C142.674 59.7917 144.754 59.4397 146.674 59.4397C148.53 59.4397 150.738 59.8237 153.298 60.5917C155.858 61.3597 157.938 62.3837 159.538 63.6637C161.458 65.3277 162.93 67.2797 163.954 69.5197C165.042 71.6957 165.586 74.0957 165.586 76.7197C165.586 77.5517 165.522 78.7997 165.394 80.4637C165.266 82.3837 165.202 83.9517 165.202 85.1677C165.202 85.7437 165.138 86.4797 165.01 87.3757C164.882 88.5277 164.818 89.4877 164.818 90.2557C164.818 91.0877 165.074 91.8877 165.586 92.6557C166.098 93.4237 166.802 94.0637 167.698 94.5757C168.53 95.0237 169.074 95.5037 169.33 96.0157C169.586 96.5277 169.714 97.1037 169.714 97.7437C169.714 98.3837 169.298 99.1837 168.466 100.144C167.698 101.04 166.93 101.488 166.162 101.488ZM146.962 83.1517C144.466 83.1517 142.258 83.6317 140.338 84.5917C138.418 85.5517 137.458 87.2477 137.458 89.6797C137.458 90.8957 137.874 91.9197 138.706 92.7517C139.602 93.5837 140.562 93.9997 141.586 93.9997C144.338 93.9997 146.642 93.7117 148.498 93.1357C150.354 92.5597 152.594 91.5037 155.218 89.9677C155.538 88.9437 155.73 87.5037 155.794 85.6477C155.794 84.9437 155.826 84.3997 155.89 84.0157C152.434 83.4397 149.458 83.1517 146.962 83.1517ZM176.932 67.8877C176.036 67.7597 175.3 67.3757 174.724 66.7357C174.212 66.0957 173.956 65.3277 173.956 64.4317C173.956 63.9837 174.052 63.5037 174.244 62.9917C174.5 62.4797 174.852 62.0317 175.3 61.6477C176.132 60.8157 178.372 60.3997 182.02 60.3997C182.532 57.9037 182.788 55.3757 182.788 52.8157C182.788 51.8557 182.756 51.0237 182.692 50.3197C182.628 49.6157 182.596 49.0717 182.596 48.6877C182.596 47.2797 183.108 46.2237 184.132 45.5197C185.22 44.8157 186.436 44.4637 187.78 44.4637C189.444 44.4637 190.564 44.8797 191.14 45.7117C191.78 46.5437 192.1 48.0797 192.1 50.3197C192.1 53.6477 191.812 56.9117 191.236 60.1117C192.26 60.1117 193.668 60.0477 195.46 59.9197C197.892 59.7917 199.652 59.7277 200.74 59.7277C201.828 59.7277 202.756 60.0157 203.524 60.5917C204.356 61.1037 204.772 61.8397 204.772 62.7997C204.772 65.2957 203.652 66.7677 201.412 67.2157C199.044 67.7917 195.364 68.1437 190.372 68.2717C190.18 70.7677 190.084 73.4877 190.084 76.4317C190.084 81.0397 190.372 84.8157 190.948 87.7597C191.332 89.8077 191.972 91.3117 192.868 92.2717C193.828 93.1677 195.236 93.6157 197.092 93.6157C198.18 93.6157 199.3 93.3277 200.452 92.7517C201.22 92.3037 201.924 92.0797 202.564 92.0797C203.46 92.0797 204.1 92.3677 204.484 92.9437C204.932 93.5197 205.156 94.2877 205.156 95.2477C205.156 97.0397 204.196 98.5437 202.276 99.7597C200.356 100.912 197.892 101.488 194.884 101.488C193.028 101.488 191.14 101.04 189.22 100.144C187.364 99.2477 185.796 98.1277 184.516 96.7837C184.324 96.5917 183.972 95.8557 183.46 94.5757C182.948 93.2957 182.5 91.9197 182.116 90.4477C181.476 87.4397 181.156 83.2157 181.156 77.7757C181.156 75.4077 181.284 72.2397 181.54 68.2717L176.932 67.8877ZM252.194 101.392C247.394 101.392 244.162 99.5357 242.498 95.8237C241.666 93.9677 241.122 91.5677 240.866 88.6237C240.61 85.6157 240.482 82.0957 240.482 78.0637V75.0877C240.482 70.4797 238.946 68.1757 235.874 68.1757C234.082 68.1757 232.29 69.1037 230.498 70.9597C228.706 72.7517 227.202 75.1517 225.986 78.1597C224.834 81.1037 224.258 84.1757 224.258 87.3757C224.258 89.4877 224.354 91.4077 224.546 93.1357C224.674 95.3117 224.738 96.9757 224.738 98.1277C224.738 100.304 223.234 101.392 220.226 101.392C218.754 101.392 217.442 101.072 216.29 100.432C215.202 99.7917 214.658 98.9597 214.658 97.9357C214.914 94.6717 215.042 90.6397 215.042 85.8397L214.946 73.1677C214.946 71.1197 214.786 63.5357 214.466 50.4157L214.178 41.5837C214.178 40.1757 214.818 38.9597 216.098 37.9357C217.378 36.8477 218.818 36.3037 220.418 36.3037C221.826 36.3037 222.85 36.6237 223.49 37.2637C224.13 37.9037 224.45 38.8957 224.45 40.2397C224.45 41.9037 224.418 43.8557 224.354 46.0957C224.29 48.2717 224.226 49.9357 224.162 51.0877C223.97 54.3517 223.874 57.6157 223.874 60.8797C223.874 64.0797 223.81 66.6077 223.682 68.4637C225.602 65.6477 227.778 63.5677 230.21 62.2237C232.706 60.8157 235.618 60.1117 238.946 60.1117C241.378 60.1117 243.618 61.1997 245.666 63.3757C247.778 65.4877 249.058 67.9197 249.506 70.6717C249.634 72.0797 249.698 74.1597 249.698 76.9117L249.602 83.9197C249.602 85.0077 249.666 86.7037 249.794 89.0077C249.858 90.0957 250.21 91.2477 250.85 92.4637C251.554 93.6797 252.354 94.5757 253.25 95.1517C254.082 95.6637 254.626 96.1757 254.882 96.6877C255.138 97.1997 255.266 97.7757 255.266 98.4157C255.266 99.0557 254.978 99.7277 254.402 100.432C253.826 101.072 253.09 101.392 252.194 101.392ZM261.289 79.4077C261.289 77.1037 261.705 74.9597 262.537 72.9757C263.369 70.9277 264.585 68.8157 266.185 66.6397C267.785 64.4637 269.993 62.7677 272.809 61.5517C275.625 60.2717 278.697 59.6317 282.025 59.6317C284.585 59.6317 287.049 60.1757 289.417 61.2637C291.849 62.2877 294.025 63.5677 295.945 65.1037C296.201 65.5517 296.649 66.3837 297.289 67.5997C297.929 68.7517 298.377 69.8077 298.633 70.7677C298.953 71.7277 299.113 72.7197 299.113 73.7437C299.113 78.0317 297.545 80.9117 294.409 82.3837C291.273 83.7917 287.305 84.4957 282.505 84.4957C277.705 84.4957 273.801 84.1757 270.793 83.5357C270.921 84.7517 271.241 85.9677 271.753 87.1837C272.265 88.3997 272.873 89.3277 273.577 89.9677C274.857 91.1837 276.105 91.9837 277.321 92.3677C278.601 92.6877 280.297 92.8477 282.409 92.8477C285.609 92.8477 288.105 92.2397 289.897 91.0237C291.561 89.9357 292.841 89.3917 293.737 89.3917C294.953 89.3917 295.881 89.7757 296.521 90.5437C297.161 91.2477 297.481 92.1757 297.481 93.3277C297.481 95.7597 295.913 97.7437 292.777 99.2797C289.705 100.816 286.217 101.584 282.313 101.584C279.241 101.584 276.201 101.04 273.193 99.9517C270.185 98.8637 267.785 97.3277 265.993 95.3437C264.777 93.2957 263.689 90.7997 262.729 87.8557C261.769 84.9117 261.289 82.0957 261.289 79.4077ZM282.409 67.5037C281.001 67.5037 279.529 67.7597 277.993 68.2717C276.521 68.7197 275.369 69.4237 274.537 70.3837C273.513 71.4717 272.745 72.4637 272.233 73.3597C271.785 74.2557 271.497 75.3757 271.369 76.7197C272.073 76.7197 272.745 76.7517 273.385 76.8157C274.025 76.8797 274.633 76.9437 275.209 77.0077C278.025 77.2637 280.137 77.3917 281.545 77.3917C284.361 77.3917 286.505 76.9757 287.977 76.1437C289.513 75.3117 290.281 74.1917 290.281 72.7837C290.281 71.4397 289.417 70.2237 287.689 69.1357C286.025 68.0477 284.265 67.5037 282.409 67.5037ZM321.713 97.2637C321.585 98.3517 321.137 99.3117 320.369 100.144C319.601 100.976 318.609 101.392 317.393 101.392C315.473 101.392 314.065 101.04 313.169 100.336C312.273 99.5677 311.825 98.1917 311.825 96.2077C311.825 93.5197 311.985 90.5757 312.305 87.3757C312.561 83.6637 312.689 80.8157 312.689 78.8317C312.689 77.8077 312.625 76.5277 312.497 74.9917C312.369 73.5837 312.305 72.5277 312.305 71.8237C312.113 70.7357 311.665 69.8717 310.961 69.2317C310.321 68.5917 309.297 68.0477 307.889 67.5997C307.313 67.3437 306.833 66.9277 306.449 66.3517C306.065 65.7117 305.873 65.1357 305.873 64.6237C305.873 63.1517 306.449 62.0317 307.601 61.2637C308.753 60.4957 310.161 60.1117 311.825 60.1117C313.681 60.1117 315.281 60.7517 316.625 62.0317C317.969 63.3117 318.993 64.9117 319.697 66.8317C321.169 64.7197 322.961 63.0237 325.073 61.7437C327.249 60.4637 329.361 59.8237 331.409 59.8237C334.033 59.8237 336.241 60.2717 338.033 61.1677C339.889 61.9997 340.817 63.4717 340.817 65.5837C340.817 66.7997 340.273 68.0797 339.185 69.4237C338.161 70.7037 337.105 71.3437 336.017 71.3437C335.185 71.3437 334.193 70.9597 333.041 70.1917C332.593 69.8717 332.081 69.6157 331.505 69.4237C330.993 69.1677 330.449 69.0397 329.873 69.0397C328.849 69.0397 327.889 69.1997 326.993 69.5197C326.097 69.8397 325.489 70.2237 325.169 70.6717C324.145 72.2717 323.377 73.7117 322.865 74.9917C322.417 76.2717 322.193 77.6477 322.193 79.1197C322.193 80.2077 322.161 81.0717 322.097 81.7117L322.001 87.1837L322.097 90.8317C322.097 93.5197 321.969 95.6637 321.713 97.2637Z" fill="black"/>
<path d="M354.912 71.952H354.72C354.592 72.592 353.952 75.152 352.8 79.632C351.712 84.112 351.008 87.056 350.688 88.464C350.368 89.808 350.08 90.896 349.824 91.728C349.632 92.56 349.408 93.52 349.152 94.608C348.896 95.632 348.64 96.464 348.384 97.104C348.192 97.68 348 98.256 347.808 98.832C347.424 99.92 347.04 100.464 346.656 100.464C345.824 100.464 344.736 99.568 343.392 97.776C342.048 95.92 341.376 94.416 341.376 93.264C341.376 92.112 343.2 84.112 346.848 69.264C350.56 54.416 352.48 44.528 352.608 39.6C352.608 38.64 352.832 37.872 353.28 37.296C353.92 35.952 355.808 34.992 358.944 34.416C362.144 33.84 366.784 33.552 372.864 33.552C379.008 33.552 383.808 33.872 387.264 34.512C390.784 35.152 392.544 36.048 392.544 37.2C392.544 37.968 392 38.512 390.912 38.832C389.824 39.152 388.864 39.408 388.032 39.6C387.2 39.728 386.112 39.888 384.768 40.08C383.424 40.208 382.176 40.336 381.024 40.464C379.872 40.528 378.368 40.656 376.512 40.848C374.72 41.04 373.056 41.232 371.52 41.424C369.984 41.552 367.904 41.776 365.28 42.096C362.656 42.416 360.96 42.608 360.192 42.672C360.256 42.864 360.288 43.152 360.288 43.536C360.288 46.544 359.04 53.456 356.544 64.272C360.512 64.464 364.768 64.368 369.312 63.984C373.92 63.6 376.736 63.408 377.76 63.408C380.192 63.408 381.408 63.92 381.408 64.944C381.408 66.928 378.624 68.592 373.056 69.936C367.552 71.28 361.504 71.952 354.912 71.952ZM414.762 52.944C417.642 52.944 420.298 54.416 422.73 57.36C425.162 60.24 426.378 62.864 426.378 65.232C426.378 67.536 425.578 69.904 423.978 72.336C424.746 73.296 425.13 74.128 425.13 74.832C425.13 76.624 424.714 79.696 423.882 84.048C423.114 88.4 422.634 91.248 422.442 92.592C422.314 93.936 422.186 95.024 422.058 95.856C421.93 96.624 421.77 97.392 421.578 98.16C421.322 99.76 420.746 100.56 419.85 100.56C418.698 100.56 417.738 99.568 416.97 97.584C416.266 95.536 415.85 92.912 415.722 89.712C410.026 96.944 404.746 100.56 399.882 100.56C396.938 100.56 394.026 99.312 391.146 96.816C388.33 94.256 386.922 91.632 386.922 88.944C386.922 85.104 388.33 80.368 391.146 74.736C393.962 69.04 397.61 63.984 402.09 59.568C406.57 55.152 410.794 52.944 414.762 52.944ZM419.178 69.84C419.178 63.888 417.994 60.912 415.626 60.912C413.13 60.912 410.218 62.704 406.89 66.288C403.562 69.808 400.746 73.808 398.442 78.288C396.138 82.768 394.986 86.32 394.986 88.944C394.986 90.032 395.434 90.928 396.33 91.632C397.226 92.272 398.282 92.592 399.498 92.592C402.506 92.592 405.898 90.576 409.674 86.544C413.45 82.448 416.074 77.488 417.546 71.664C417.738 70.704 418.282 70.128 419.178 69.936V69.84ZM461.682 52.944C463.858 52.944 465.906 54.16 467.826 56.592C469.746 58.96 470.706 61.04 470.706 62.832C470.706 63.92 470.194 64.464 469.17 64.464C468.466 64.464 467.378 63.92 465.906 62.832C464.434 61.68 462.93 61.104 461.394 61.104C459.858 61.104 457.426 62 454.098 63.792C450.834 65.584 449.202 67.472 449.202 69.456C449.202 70.928 452.146 73.456 458.034 77.04C460.274 78.448 462.29 80.272 464.082 82.512C465.938 84.688 466.866 87.056 466.866 89.616C466.866 92.112 465.106 94.576 461.586 97.008C458.13 99.376 454.066 100.56 449.394 100.56C444.786 100.56 440.69 99.44 437.106 97.2C433.586 94.96 431.826 92.848 431.826 90.864C431.826 90.032 432.018 89.392 432.402 88.944C432.85 88.432 433.394 88.176 434.034 88.176C434.674 88.176 435.57 88.592 436.722 89.424C440.178 91.92 443.762 93.168 447.474 93.168C451.25 93.168 453.97 92.752 455.634 91.92C457.298 91.024 458.13 89.872 458.13 88.464C458.13 86.992 457.202 85.456 455.346 83.856C453.49 82.192 451.442 80.72 449.202 79.44C447.026 78.16 445.01 76.592 443.154 74.736C441.298 72.88 440.37 70.992 440.37 69.072C440.37 65.68 443.026 62.16 448.338 58.512C453.714 54.8 458.162 52.944 461.682 52.944ZM485.853 90.96C485.853 92.176 486.557 92.784 487.965 92.784C490.397 92.784 493.341 92.112 496.797 90.768C500.317 89.36 502.269 88.656 502.653 88.656C503.805 88.656 504.381 89.264 504.381 90.48C504.381 92.336 502.461 94.48 498.621 96.912C494.845 99.344 491.389 100.56 488.253 100.56C485.181 100.56 482.621 99.728 480.573 98.064C478.525 96.336 477.501 94.576 477.501 92.784C477.501 90.992 477.885 88.72 478.653 85.968C479.421 83.152 480.509 79.472 481.917 74.928C483.389 70.32 484.541 66.512 485.373 63.504C482.365 64.208 480.349 64.56 479.325 64.56C478.301 64.56 477.277 64.048 476.253 63.024C475.293 61.936 474.813 60.912 474.813 59.952C474.813 58.416 478.973 56.944 487.293 55.536C488.445 50.224 489.021 45.52 489.021 41.424C489.021 39.504 489.661 38.544 490.941 38.544C492.029 38.544 493.373 39.248 494.973 40.656C496.573 42 497.373 43.536 497.373 45.264C497.373 46.992 496.829 50.032 495.741 54.384C499.389 54.064 502.301 53.904 504.477 53.904C508.317 53.904 510.237 54.736 510.237 56.4C510.237 57.36 509.181 58.16 507.069 58.8C505.021 59.44 500.669 60.432 494.013 61.776C492.669 66.832 490.973 72.624 488.925 79.152C486.877 85.616 485.853 89.552 485.853 90.96Z" fill="black"/>
</svg>
